<?xml version="1.0" encoding="UTF-8" standalone="no"?>
<!-- Created with Inkscape (http://www.inkscape.org/) -->
<svg
   xmlns:dc="http://purl.org/dc/elements/1.1/"
   xmlns:cc="http://web.resource.org/cc/"
   xmlns:rdf="http://www.w3.org/1999/02/22-rdf-syntax-ns#"
   xmlns:svg="http://www.w3.org/2000/svg"
   xmlns="http://www.w3.org/2000/svg"
   xmlns:xlink="http://www.w3.org/1999/xlink"
   xmlns:sodipodi="http://sodipodi.sourceforge.net/DTD/sodipodi-0.dtd"
   xmlns:inkscape="http://www.inkscape.org/namespaces/inkscape"
   width="32px"
   height="32px"
   id="svg1306"
   sodipodi:version="0.32"
   inkscape:version="0.44"
   inkscape:export-filename="C:\Daten\07_Projekte\Report\ch.gridvision.crm.report\src\res\icons\reportelements\LabelReportElement.png"
   inkscape:export-xdpi="45.000000"
   inkscape:export-ydpi="45.000000"
   sodipodi:docbase="C:\Daten\07_Projekte\PentahoReportDesigner\src\res\icons\reportelements"
   sodipodi:docname="ResourceLabelReportElement.svg">
  <defs
     id="defs1308">
    <linearGradient
       id="linearGradient2263">
      <stop
         style="stop-color:#ffffff;stop-opacity:0.87704921;"
         offset="0"
         id="stop2265" />
      <stop
         id="stop2329"
         offset="0.43367347"
         style="stop-color:#ffffff;stop-opacity:0.8114754;" />
      <stop
         id="stop2271"
         offset="1"
         style="stop-color:#ffffff;stop-opacity:0;" />
    </linearGradient>
    <radialGradient
       inkscape:collect="always"
       xlink:href="#linearGradient2263"
       id="radialGradient2746"
       gradientUnits="userSpaceOnUse"
       gradientTransform="matrix(1.248061,-2.011306e-2,1.611335e-2,0.99987,-4.255947,0.339301)"
       cx="16.837982"
       cy="4.9089689"
       fx="16.837982"
       fy="4.9089689"
       r="13.183728" />
    <linearGradient
       id="linearGradient2362">
      <stop
         id="stop2364"
         offset="0"
         style="stop-color:#ffffff;stop-opacity:1;" />
      <stop
         style="stop-color:#ffffff;stop-opacity:0.78688526;"
         offset="0.58673471"
         id="stop2366" />
      <stop
         style="stop-color:#ffffff;stop-opacity:0;"
         offset="1"
         id="stop2368" />
    </linearGradient>
    <radialGradient
       inkscape:collect="always"
       xlink:href="#linearGradient2362"
       id="radialGradient2744"
       gradientUnits="userSpaceOnUse"
       gradientTransform="matrix(0.837724,-1.766064e-2,7.817925e-3,0.308642,-0.912313,6.05454)"
       cx="-7.1954551"
       cy="28.473303"
       fx="-7.1954551"
       fy="28.473303"
       r="10.548669" />
    <linearGradient
       id="linearGradient2770">
      <stop
         style="stop-color:#dfdfdf;stop-opacity:1;"
         offset="0"
         id="stop2772" />
      <stop
         style="stop-color:#f1f1f1;stop-opacity:1;"
         offset="1"
         id="stop2774" />
    </linearGradient>
    <linearGradient
       inkscape:collect="always"
       xlink:href="#linearGradient2770"
       id="linearGradient2776"
       x1="1.9289737"
       y1="13.233637"
       x2="29.720772"
       y2="13.176447"
       gradientUnits="userSpaceOnUse"
       gradientTransform="matrix(1.000000,0.000000,0.000000,1.049670,1.307800e-8,0.877197)" />
  </defs>
  <sodipodi:namedview
     id="base"
     pagecolor="#ffffff"
     bordercolor="#666666"
     borderopacity="1.0"
     inkscape:pageopacity="0.0"
     inkscape:pageshadow="2"
     inkscape:zoom="15.836083"
     inkscape:cx="18.245132"
     inkscape:cy="15.821373"
     inkscape:current-layer="layer1"
     showgrid="true"
     inkscape:grid-bbox="true"
     inkscape:document-units="px"
     inkscape:window-width="977"
     inkscape:window-height="682"
     inkscape:window-x="174"
     inkscape:window-y="152" />
  <metadata
     id="metadata1311">
    <rdf:RDF>
      <cc:Work
         rdf:about="">
        <dc:format>image/svg+xml</dc:format>
        <dc:type
           rdf:resource="http://purl.org/dc/dcmitype/StillImage" />
      </cc:Work>
    </rdf:RDF>
  </metadata>
  <g
     id="layer1"
     inkscape:label="Layer 1"
     inkscape:groupmode="layer">
    <path
       style="font-size:24.48145103px;font-style:normal;font-variant:normal;font-weight:normal;font-stretch:normal;text-align:start;line-height:100%;writing-mode:lr-tb;text-anchor:start;fill:#0600b6;fill-opacity:1;stroke:#000000;stroke-width:0.625;stroke-linecap:butt;stroke-linejoin:miter;stroke-miterlimit:4;stroke-dasharray:none;stroke-opacity:1;font-family:Arial"
       d="M 0.6875,24.400608 L 7.4175083,6.8762877 L 9.915859,6.8762877 L 17.08816,24.400608 L 14.446362,24.400608 L 12.402257,19.093106 L 5.0745569,19.093106 L 3.1499897,24.400608 L 0.6875,24.400608 M 5.7439716,17.2044 L 11.685027,17.2044 L 9.85609,12.351143 C 9.298236,10.876851 8.883837,9.6655302 8.612892,8.717178 C 8.389746,9.8408529 8.0749618,10.956543 7.6685388,12.064251 L 5.7439716,17.2044 M 20.67431,24.400608 L 18.678019,24.400608 L 18.678019,6.8762877 L 20.829709,6.8762877 L 20.829709,13.128143 C 21.738196,11.988556 22.897717,11.418757 24.308275,11.418744 C 25.089251,11.418757 25.826403,11.578142 26.519734,11.896898 C 27.221016,12.20771 27.794799,12.650001 28.241086,13.223773 C 28.69532,13.789599 29.04995,14.474951 29.304977,15.279833 C 29.55998,16.084732 29.687487,16.945408 29.6875,17.861861 C 29.687487,20.037463 29.149566,21.718967 28.073733,22.906378 C 26.997878,24.093793 25.706865,24.687499 24.200691,24.6875 C 22.702471,24.687499 21.527012,24.061916 20.67431,22.810748 L 20.67431,24.400608 M 20.650402,17.957491 C 20.650398,19.479618 20.857598,20.579369 21.272001,21.256749 C 21.94938,22.364473 22.86584,22.918334 24.021383,22.918332 C 24.961743,22.918334 25.774603,22.511904 26.459965,21.699041 C 27.145308,20.878215 27.487984,19.658925 27.487995,18.041168 C 27.487984,16.383578 27.157262,15.160304 26.495827,14.371341 C 25.842342,13.582399 25.049405,13.187923 24.117014,13.187912 C 23.176639,13.187923 22.363779,13.598338 21.678432,14.419157 C 20.993075,15.232026 20.650398,16.41147 20.650402,17.957491"
       id="text2306" />
    <g
       id="g2734"
       transform="matrix(0.645315,0,0,0.645315,12.72614,12.11303)">
      <path
         transform="matrix(0.769625,0,0,0.769625,4.604625,5.826834)"
         d="M 32.17336 17.371727 A 14.451495 14.451495 0 1 1  3.2703695,17.371727 A 14.451495 14.451495 0 1 1  32.17336 17.371727 z"
         sodipodi:ry="14.451495"
         sodipodi:rx="14.451495"
         sodipodi:cy="17.371727"
         sodipodi:cx="17.721865"
         id="path2325"
         style="opacity:1;fill:#47c9ff;fill-opacity:1;fill-rule:evenodd;stroke:none;stroke-width:1;stroke-linecap:butt;stroke-linejoin:round;stroke-miterlimit:4;stroke-dasharray:none;stroke-dashoffset:0;stroke-opacity:1"
         sodipodi:type="arc" />
      <path
         sodipodi:nodetypes="csss"
         id="path2315"
         d="M 11.33985,10.954778 C 13.071507,9.4978842 14.359995,10.390201 13.397963,12.121858 C 12.435931,13.853515 8.5334525,18.224195 7.7638272,17.949431 C 6.9942018,17.674668 9.6081932,12.411671 11.33985,10.954778 z "
         style="fill:#002390;fill-opacity:1;fill-rule:evenodd;stroke:none;stroke-width:1px;stroke-linecap:butt;stroke-linejoin:miter;stroke-opacity:1" />
      <path
         sodipodi:nodetypes="ccss"
         id="path2317"
         d="M 7.6277753,19.059187 C 7.3256637,20.88021 10.661937,27.258626 12.393594,27.835845 C 10.247774,21.882576 14.079223,22.677891 12.649678,20.279648 C 11.220133,17.881407 7.929887,17.238164 7.6277753,19.059187 z "
         style="fill:#002390;fill-opacity:1;fill-rule:evenodd;stroke:none;stroke-width:1px;stroke-linecap:butt;stroke-linejoin:miter;stroke-opacity:1" />
      <path
         sodipodi:nodetypes="cscccccc"
         id="path2319"
         d="M 18.041061,14.101305 C 18.041061,14.101305 16.078605,15.619946 16.883306,17.699983 C 17.863005,20.232365 21.527718,19.875498 21.527718,19.875498 L 23.339072,26.679404 L 26.57897,19.627394 L 25.397185,16.65694 L 23.271046,15.006982 L 18.041061,14.101305 z "
         style="fill:#002390;fill-opacity:1;fill-rule:evenodd;stroke:none;stroke-width:1px;stroke-linecap:butt;stroke-linejoin:miter;stroke-opacity:1" />
      <path
         sodipodi:nodetypes="cccccccc"
         id="path2321"
         d="M 18.109086,13.807861 C 18.046396,11.490646 21.231002,9.6876306 22.84155,9.6876306 C 22.84155,9.6876306 25.493889,10.221496 27.820773,14.598827 C 29.127268,17.207483 28.815816,19.578049 28.815816,19.578049 L 26.098784,17.541276 C 26.098784,17.541276 24.690251,15.244071 23.292386,14.713538 C 22.506756,13.910901 20.915485,13.514417 20.915485,13.514417 C 20.915485,13.514417 19.415573,13.342159 18.109086,13.807861 z "
         style="fill:#002390;fill-opacity:1;fill-rule:evenodd;stroke:none;stroke-width:1px;stroke-linecap:butt;stroke-linejoin:miter;stroke-opacity:1" />
      <path
         sodipodi:nodetypes="cccc"
         id="path2323"
         d="M 26.417573,21.346722 L 28.339634,22.377751 L 26.446924,25.552314 L 26.417573,21.346722 z "
         style="fill:#002390;fill-opacity:1;fill-rule:evenodd;stroke:none;stroke-width:1px;stroke-linecap:butt;stroke-linejoin:miter;stroke-opacity:1" />
      <path
         transform="matrix(1.070767,0,0,1.173708,25.45888,10.32848)"
         sodipodi:open="true"
         sodipodi:end="9.4350956"
         sodipodi:start="6.2586417"
         d="M 3.8279172,6.9652071 A 10.548609,9.8553019 0 1 1 -17.265562,7.1053858"
         sodipodi:ry="9.8553019"
         sodipodi:rx="10.548609"
         sodipodi:cy="7.2070675"
         sodipodi:cx="-6.7175145"
         id="path2331"
         style="opacity:0.8;fill:url(#radialGradient2744);fill-opacity:1;fill-rule:evenodd;stroke:none;stroke-width:0.68651778;stroke-linecap:butt;stroke-linejoin:round;stroke-miterlimit:4;stroke-dasharray:none;stroke-dashoffset:0;stroke-opacity:1"
         sodipodi:type="arc" />
      <path
         transform="matrix(0.769625,0,0,0.769625,4.605942,5.825517)"
         d="M 32.17336 17.371727 A 14.451495 14.451495 0 1 1  3.2703695,17.371727 A 14.451495 14.451495 0 1 1  32.17336 17.371727 z"
         sodipodi:ry="14.451495"
         sodipodi:rx="14.451495"
         sodipodi:cy="17.371727"
         sodipodi:cx="17.721865"
         id="path1409"
         style="opacity:1;fill:url(#radialGradient2746);fill-opacity:1;fill-rule:evenodd;stroke:#0b00b4;stroke-width:1.29933345;stroke-linecap:butt;stroke-linejoin:round;stroke-miterlimit:4;stroke-dasharray:none;stroke-dashoffset:0;stroke-opacity:1"
         sodipodi:type="arc" />
    </g>
  </g>
</svg>
